<svg width="20" height="18" viewBox="0 0 20 18" fill="#878794" xmlns="http://www.w3.org/2000/svg">
<path d="M15.75 17.25C14.7 17.25 13.8125 16.8875 13.0875 16.1625C12.3625 15.4375 12 14.55 12 13.5C12 12.45 12.3625 11.5625 13.0875 10.8375C13.8125 10.1125 14.7 9.75 15.75 9.75C16.8 9.75 17.6875 10.1125 18.4125 10.8375C19.1375 11.5625 19.5 12.45 19.5 13.5C19.5 14.55 19.1375 15.4375 18.4125 16.1625C17.6875 16.8875 16.8 17.25 15.75 17.25ZM15.75 15.25C16.2333 15.25 16.6458 15.0792 16.9875 14.7375C17.3292 14.3958 17.5 13.9833 17.5 13.5C17.5 13.0167 17.3292 12.6042 16.9875 12.2625C16.6458 11.9208 16.2333 11.75 15.75 11.75C15.2667 11.75 14.8542 11.9208 14.5125 12.2625C14.1708 12.6042 14 13.0167 14 13.5C14 13.9833 14.1708 14.3958 14.5125 14.7375C14.8542 15.0792 15.2667 15.25 15.75 15.25ZM1.99998 14.5V12.5H9.99998V14.5H1.99998ZM4.24998 8.25C3.19998 8.25 2.31248 7.8875 1.58748 7.1625C0.862485 6.4375 0.499985 5.55 0.499985 4.5C0.499985 3.45 0.862485 2.5625 1.58748 1.8375C2.31248 1.1125 3.19998 0.75 4.24998 0.75C5.29998 0.75 6.18748 1.1125 6.91248 1.8375C7.63748 2.5625 7.99998 3.45 7.99998 4.5C7.99998 5.55 7.63748 6.4375 6.91248 7.1625C6.18748 7.8875 5.29998 8.25 4.24998 8.25ZM4.24998 6.25C4.73332 6.25 5.14582 6.07917 5.48748 5.7375C5.82915 5.39583 5.99998 4.98333 5.99998 4.5C5.99998 4.01667 5.82915 3.60417 5.48748 3.2625C5.14582 2.92083 4.73332 2.75 4.24998 2.75C3.76665 2.75 3.35415 2.92083 3.01248 3.2625C2.67082 3.60417 2.49998 4.01667 2.49998 4.5C2.49998 4.98333 2.67082 5.39583 3.01248 5.7375C3.35415 6.07917 3.76665 6.25 4.24998 6.25ZM9.99998 5.5V3.5H18V5.5H9.99998Z" />
</svg>
