<svg width="25" height="24" viewBox="0 0 25 24" fill="currentColor" xmlns="http://www.w3.org/2000/svg">
  <path
    d="M15.7594 14H14.9562L14.6715 13.73C15.8915 12.33 16.5219 10.42 16.1762 8.39002C15.6984 5.61002 13.3395 3.39002 10.4927 3.05002C6.19188 2.53002 2.5723 6.09001 3.101 10.32C3.44669 13.12 5.70385 15.44 8.53038 15.91C10.5944 16.25 12.5363 15.63 13.9597 14.43L14.2343 14.71V15.5L18.5554 19.75C18.9723 20.16 19.6535 20.16 20.0703 19.75C20.4872 19.34 20.4872 18.67 20.0703 18.26L15.7594 14ZM9.65895 14C7.12728 14 5.08364 11.99 5.08364 9.50002C5.08364 7.01002 7.12728 5.00002 9.65895 5.00002C12.1906 5.00002 14.2343 7.01002 14.2343 9.50002C14.2343 11.99 12.1906 14 9.65895 14Z"
  />
</svg>