<svg width="26" height="32" viewBox="0 0 26 32" fill="none" xmlns="http://www.w3.org/2000/svg">
  <path
    d="M13 26.2712C20.1165 26.2712 25.8856 20.5021 25.8856 13.3856C25.8856 6.26909 20.1165 0.5 13 0.5C5.88347 0.5 0.11438 6.26909 0.11438 13.3856C0.11438 20.5021 5.88347 26.2712 13 26.2712Z"
    fill="#FEB47B" />
  <path
    d="M10.3652 16.4312C10.2553 16.3432 10.1697 16.2235 10.1288 16.0795C10.0272 15.7308 10.2273 15.3836 10.576 15.3056C14.0081 14.5317 16.3192 16.3387 16.4169 16.416C16.708 16.6479 16.7648 17.0565 16.5481 17.3294C16.3313 17.6007 15.9205 17.6333 15.6302 17.4029C15.5468 17.3392 13.7178 15.9453 10.9443 16.5706C10.7367 16.6169 10.5244 16.5585 10.3652 16.4312Z"
    fill="#4F4E59" />
  <path
    d="M9.30031 10.9692C10.1899 10.9692 10.911 10.0679 10.911 8.95606C10.911 7.84421 10.1899 6.94287 9.30031 6.94287C8.41074 6.94287 7.68961 7.84421 7.68961 8.95606C7.68961 10.0679 8.41074 10.9692 9.30031 10.9692Z"
    fill="#4F4E59" />
  <path
    d="M17.8321 11.7742C18.7216 11.7742 19.4428 10.8728 19.4428 9.76099C19.4428 8.64914 18.7216 7.7478 17.8321 7.7478C16.9425 7.7478 16.2214 8.64914 16.2214 9.76099C16.2214 10.8728 16.9425 11.7742 17.8321 11.7742Z"
    fill="#4F4E59" />
  <path
    d="M12.5816 30.3391L12.5568 30.3445L10.1712 30.8599C7.18379 31.5496 4.23483 29.6261 3.5475 26.6585L3.54746 26.6583C3.24255 25.3397 3.30682 24.3071 3.74244 23.373C4.16614 22.4644 4.91758 21.7056 5.84898 20.8853L12.5816 30.3391ZM12.5816 30.3391L12.6057 30.3313M12.5816 30.3391L12.6057 30.3313M12.6057 30.3313L12.4512 29.8557M12.6057 30.3313L12.4512 29.8557M12.4512 29.8557C12.6057 30.3313 12.6058 30.3312 12.606 30.3312L12.6063 30.3311L12.6071 30.3308L12.6088 30.3303L12.6133 30.3288L12.6264 30.3243C12.6369 30.3206 12.6509 30.3156 12.668 30.3092C12.7021 30.2964 12.7487 30.278 12.8041 30.2537C12.9138 30.2055 13.0633 30.1317 13.2199 30.0292C13.5154 29.8358 13.9286 29.4789 14.0268 28.9177C14.0901 28.5608 14.0333 28.2682 13.9118 28.0402M12.4512 29.8557L13.9118 28.0402M13.9118 28.0402C14.1625 27.8119 14.39 27.464 14.4466 26.9591L14.4466 26.9589C14.5017 26.4658 14.3467 26.0987 14.1332 25.8459C14.3506 25.5916 14.5466 25.2228 14.5668 24.7239L14.5668 24.7236C14.5802 24.3858 14.4791 24.1065 14.3422 23.8866L15.389 23.6332C16.3948 23.39 17.4439 23.1368 17.6372 23.092L17.6376 23.0919C17.9096 23.0287 18.2643 22.8681 18.5274 22.5606C18.8097 22.2306 18.952 21.7694 18.8218 21.2086L13.9118 28.0402ZM10.1889 21.6412C11.3074 21.3808 13.8915 20.7806 15.5237 20.4015C16.2705 20.2281 16.818 20.1009 16.9347 20.0737L10.1889 21.6412ZM10.1889 21.6412L9.71368 21.7515C9.92005 21.3975 10.0578 20.9827 10.1191 20.4487C10.2227 19.548 9.92589 18.4899 9.75761 18.0747L9.75748 18.0743C9.44357 17.3013 8.88207 16.6039 8.14211 16.3501L10.1889 21.6412ZM6.33567 18.1612L6.33556 18.1608C6.14676 17.5799 6.2038 16.9848 6.61021 16.5919C7.01182 16.2036 7.59964 16.1641 8.14208 16.3501L6.33567 18.1612ZM6.33567 18.1612C6.74672 19.4229 6.45513 20.3507 5.84902 20.8852L6.33567 18.1612ZM18.8218 21.2085C18.6906 20.6392 18.349 20.2948 17.9435 20.1357C17.5703 19.9892 17.1867 20.015 16.935 20.0737L18.8218 21.2085Z"
    fill="white" stroke="#4F4E59" />
  <path
    d="M6.40262 5.30031C6.27832 5.23361 6.17296 5.13053 6.10625 4.99788C5.94253 4.67347 6.07594 4.29523 6.40414 4.15501C9.63767 2.76715 12.2398 4.12242 12.349 4.18078C12.6772 4.35587 12.8098 4.74699 12.6453 5.05549C12.4816 5.36247 12.0844 5.46934 11.7562 5.29652C11.663 5.24877 9.60963 4.2111 6.99764 5.33215C6.80284 5.41477 6.58302 5.39658 6.40262 5.30031ZM15.6007 8.14273C15.4824 8.06845 15.3839 7.95854 15.3263 7.82135C15.1846 7.48632 15.3437 7.1187 15.681 6.9997C19.0017 5.83544 21.5061 7.36353 21.6107 7.42947C21.9252 7.62655 22.0314 8.026 21.8472 8.32237C21.6637 8.61798 21.259 8.69757 20.9444 8.50277C20.8535 8.44819 18.8774 7.27409 16.1942 8.21549C15.9926 8.28447 15.775 8.25036 15.6007 8.14273Z"
    fill="#4F4E59" />
</svg>
  