<svg width="30" height="31" viewBox="0 0 30 31" fill="none" xmlns="http://www.w3.org/2000/svg">
<path d="M4.05559 8.09641C4.83984 7.54827 6.02206 7.6534 6.72621 8.23491L5.9186 7.06104C5.26868 6.13412 5.50145 5.13129 6.4292 4.48053C7.35695 3.83227 9.98585 5.57514 9.98585 5.57514C9.33008 4.63905 9.45272 3.45266 10.3888 2.79606C11.3249 2.14197 12.6164 2.36806 13.2722 3.30582L21.9657 15.5868L20.8577 26.3285L11.6111 22.9562L3.54583 10.9981C2.88423 10.0562 3.11283 8.75718 4.05559 8.09641Z" fill="#FF7E5F"/>
<path d="M2.24845 14.9285C2.24845 14.9285 1.30402 13.5519 2.68146 12.6083C4.05723 11.6647 5.00083 13.0405 5.00083 13.0405L9.38178 19.4296C9.53278 19.1777 9.69798 18.929 9.88236 18.6837L3.80193 9.81756C3.80193 9.81756 2.85833 8.44179 4.23494 7.49819C5.61071 6.55459 6.55431 7.93036 6.55431 7.93036L12.2735 16.2709C12.4862 16.0974 12.704 15.923 12.9284 15.752L6.29818 6.08154C6.29818 6.08154 5.35458 4.70577 6.73118 3.76217C8.10695 2.81857 9.05056 4.19434 9.05056 4.19434L15.6808 13.8631C15.9244 13.7138 16.1655 13.5845 16.4075 13.4476L10.2102 4.41042C10.2102 4.41042 9.26664 3.03465 10.6424 2.09105C12.0182 1.14745 12.9618 2.52322 12.9618 2.52322L19.5144 12.0794L20.5106 13.5327C16.3824 16.3644 15.9895 21.6914 18.3481 25.1313C18.8195 25.8196 19.5078 25.3482 19.5078 25.3482C16.677 21.2192 17.5413 16.5796 21.6703 13.7488L20.453 7.65671C20.453 7.65671 19.9983 6.0515 21.6027 5.59597C23.2079 5.14128 23.6634 6.74648 23.6634 6.74648L25.0692 10.9214C25.6266 12.5766 26.2198 14.226 27.0048 15.7862C29.2216 20.1913 27.8975 25.6661 23.7177 28.5336C19.1582 31.6597 12.9251 30.4975 9.79809 25.9389L2.24845 14.9285Z" fill="#FEB47B"/>
<path d="M10.0117 27.1979C6.67443 27.1979 3.30216 23.8256 3.30216 20.4884C3.30216 20.027 2.96426 19.6541 2.50289 19.6541C2.04152 19.6541 1.63354 20.027 1.63354 20.4884C1.63354 25.4942 5.00581 28.8665 10.0117 28.8665C10.473 28.8665 10.846 28.4585 10.846 27.9971C10.846 27.5357 10.473 27.1979 10.0117 27.1979Z" fill="#4F4E59"/>
<path d="M5.84015 28.8314C3.33723 28.8314 1.66861 27.1627 1.66861 24.6598C1.66861 24.1985 1.29568 23.8255 0.834307 23.8255C0.372935 23.8255 0 24.1985 0 24.6598C0 27.9971 2.50292 30.5 5.84015 30.5C6.30152 30.5 6.67445 30.127 6.67445 29.6657C6.67445 29.2043 6.30152 28.8314 5.84015 28.8314ZM20.0234 2.13354C19.5628 2.13354 19.1891 2.50731 19.1891 2.96785C19.1891 3.42839 19.5628 3.80216 20.0234 3.80216C23.3606 3.80216 26.6978 6.79648 26.6978 10.4766C26.6978 10.9371 27.0716 11.3109 27.5321 11.3109C27.9927 11.3109 28.3664 10.9371 28.3664 10.4766C28.3664 5.87624 25.0292 2.13354 20.0234 2.13354Z" fill="#4F4E59"/>
<path d="M24.1949 0.5C23.7344 0.5 23.3606 0.838729 23.3606 1.29927C23.3606 1.7598 23.7344 2.16861 24.1949 2.16861C26.6978 2.16861 28.3314 4.02495 28.3314 6.30511C28.3314 6.76564 28.7394 7.13941 29.2007 7.13941C29.6621 7.13941 30 6.76564 30 6.30511C30 3.10387 27.5321 0.5 24.1949 0.5Z" fill="#4F4E59"/>
</svg>
