<svg width="24" height="31" viewBox="0 0 24 31" fill="none" xmlns="http://www.w3.org/2000/svg">
<path d="M16.4633 17.9543L15.025 12.2211L11.7263 4.85315C11.3068 3.76919 11.8458 2.54983 12.9298 2.13112C14.0129 1.70824 15.2331 2.25064 15.6527 3.3346L20.8368 16.5135L16.4633 17.9543Z" fill="#FF7E5F"/>
<path d="M23.441 15.875C23.0331 13.7179 21.7795 10.4234 21.7795 10.4234L16.9431 1.65725C16.4199 0.619247 15.1529 0.203045 14.1157 0.725387C13.0777 1.24856 12.6598 2.51472 13.1839 3.55272L17.6384 11.5316C17.6493 11.55 18.8193 16.1207 18.8193 16.1207C17.9184 15.2891 16.6405 14.1492 15.4638 13.097C12.8746 10.7803 11.3385 9.91192 11.3385 9.91192C10.7451 9.54169 10.3532 9.48904 9.55671 9.86261L4.6492 12.0088C4.51799 12.074 4.40684 12.1659 4.31908 12.2838L2.386 14.8629C1.63968 15.7546 1.75752 17.0818 2.64926 17.8273C3.54017 18.5736 4.8665 18.4541 5.61449 17.5649C5.65461 17.5164 7.10212 15.4253 7.2325 15.3585C8.09917 14.913 9.71049 14.1492 10.415 14.1717C11.1647 14.196 15.6644 19.1503 15.6644 19.1503C15.8365 19.3667 15.8566 19.6668 15.7145 19.9041L13.2783 24.2734C13.2123 24.3829 13.117 24.4706 13.0025 24.5266L10.7677 25.7803C10.639 25.8429 10.4936 25.863 10.3532 25.8363L5.94879 23.9374C5.72983 23.843 5.54763 23.67 5.45403 23.4502C4.7963 21.9041 4.70353 20.4256 4.70269 20.4089C4.64837 19.2472 3.66302 18.3505 2.50133 18.4048C1.34215 18.4516 0.442887 19.4436 0.49721 20.6053C0.508075 20.8251 0.790558 25.3189 4.44779 28.3711C6.56056 30.1328 9.17311 30.8148 12.5119 30.366C16.3664 29.8487 18.7541 29.3355 22.128 22.3779C23.0616 20.4515 23.7185 17.3434 23.441 15.875Z" fill="#FEB47B"/>
</svg>
